<svg width="351" height="60" viewBox="0 0 351 60" fill="none" xmlns="http://www.w3.org/2000/svg">
<g clip-path="url(#clip0_8730_28424)">
<g clip-path="url(#clip1_8730_28424)">
<path d="M4.5625 17.4534H11.0357L11.0745 1.73242L4.5625 4.29289V17.4534Z"  fill="currentColor"/>
<path d="M13.4297 17.4526H19.9294V-0.0449219L13.4297 1.26089V17.4526Z"  fill="currentColor"/>
<path d="M22.2482 7.91417H28.7214V5.77943H35.2825L18.6641 25.0105H27.19L47.5132 1.94794C47.5132 1.94794 37.8034 -1.5008 22.283 -0.211362C22.3177 -0.141773 22.2482 7.91417 22.2482 7.91417Z"  fill="currentColor"/>
<path d="M35.7109 17.3849H44.3759L47.8394 13.1175V17.3849H54.3637V4.37181L48.9701 2.26367L35.7109 17.3849Z"  fill="currentColor"/>
<path d="M54.3658 18.8457V34.2597H39.0191L44.2389 27.7981H47.9458V25.0105H27.1094L32.5909 18.8457H54.3658Z" fill="#00A5FE"/>
<path d="M4.5625 34.2597V18.8457H22.242L17.0222 25.3072H13.3154V28.0949L35.2231 28.0417L29.7436 34.2085L4.5625 34.2597Z" fill="#00A5FE"/>
<path d="M15.0027 49.0495L18.918 44.2417L16.0822 42.0476H21.3715V35.498H5.46875C5.46875 35.498 7.5665 43.6154 15.0047 49.0515L15.0027 49.0495Z"  fill="currentColor"/>
<path d="M16.1016 50.0781L34.1471 28.043H42.4297L25.2368 48.7887L28.6819 51.4003L28.6308 59.5013L16.1016 50.0781Z"  fill="currentColor"/>
<path d="M53.6313 35.3594C50.9202 45.7916 41.3536 51.8724 33.0035 57.5726C32.1304 58.1682 31.1858 58.8866 30.2188 59.2673V45.0322L38.3112 35.3594H53.6313ZM43.1037 41.9662H40.0389L37.1887 46.3483L36.9761 46.9991L43.1017 41.9662H43.1037Z"  fill="currentColor"/>
</g>
</g>
<path d="M62.1252 26.5V10.63H66.486V26.5H62.1252ZM70.1443 26.5V10.63H73.7323L82.6747 21.3664H81.0463V10.63H85.3243V26.5H81.7363L72.7663 15.7636H74.4223V26.5H70.1443ZM93.6899 26.5L86.7899 10.63H91.4267L97.2779 24.568H94.6007L100.562 10.63H104.895L97.9955 26.5H93.6899ZM110.234 16.8676H117.907V20.0416H110.234V16.8676ZM110.676 23.1604H119.149V26.5H106.37V10.63H118.846V13.9696H110.676V23.1604ZM121.775 26.5V10.63H125.363L134.305 21.3664H132.677V10.63H136.955V26.5H133.367L124.397 15.7636H126.053V26.5H121.775ZM139.524 26.5V23.7676L149.129 12.5344L149.626 14.0248H139.717V10.63H153.517V13.3624L143.885 24.5956L143.388 23.1052H153.849V26.5H139.524ZM153.66 26.5L160.78 10.63H165.086L172.234 26.5H167.929L162.216 12.7276H163.678L157.882 26.5H153.66ZM157.551 23.3536L158.683 20.2072H166.521L167.653 23.3536H157.551ZM184.695 16.8676H192.368V20.0416H184.695V16.8676ZM185.137 23.1604H193.61V26.5H180.831V10.63H193.306V13.9696H185.137V23.1604ZM196.235 26.5V10.63H199.823L208.766 21.3664H207.137V10.63H211.415V26.5H207.827L198.857 15.7636H200.513V26.5H196.235ZM229.524 24.7888C228.935 25.212 228.273 25.58 227.537 25.8928C226.819 26.1872 226.065 26.408 225.273 26.5552C224.501 26.7208 223.737 26.8036 222.983 26.8036C221.216 26.8036 219.652 26.454 218.291 25.7548C216.929 25.0372 215.862 24.0528 215.089 22.8016C214.335 21.5504 213.957 20.1428 213.957 18.5788C213.957 16.978 214.344 15.5612 215.117 14.3284C215.889 13.0956 216.957 12.1204 218.318 11.4028C219.68 10.6852 221.225 10.3264 222.955 10.3264C224.501 10.3264 225.844 10.5656 226.985 11.044C228.144 11.504 229.11 12.2124 229.883 13.1692L227.012 15.736C226.479 15.1104 225.871 14.6504 225.191 14.356C224.528 14.0432 223.801 13.8868 223.01 13.8868C222.109 13.8868 221.308 14.0892 220.609 14.494C219.91 14.8804 219.358 15.4232 218.953 16.1224C218.548 16.8216 218.346 17.6404 218.346 18.5788C218.346 19.4804 218.548 20.29 218.953 21.0076C219.358 21.7068 219.91 22.2588 220.609 22.6636C221.308 23.05 222.127 23.2432 223.065 23.2432C223.838 23.2432 224.537 23.1236 225.163 22.8844C225.807 22.6452 226.442 22.2864 227.067 21.808L229.524 24.7888ZM225.549 24.844V18.358H229.524V24.7888L225.549 24.844ZM232.758 26.5V10.63H237.119V26.5H232.758ZM240.777 26.5V10.63H244.365L253.307 21.3664H251.679V10.63H255.957V26.5H252.369L243.399 15.7636H245.055V26.5H240.777ZM263.522 16.8676H271.195V20.0416H263.522V16.8676ZM263.964 23.1604H272.437V26.5H259.658V10.63H272.133V13.9696H263.964V23.1604ZM278.926 16.8676H286.599V20.0416H278.926V16.8676ZM279.368 23.1604H287.841V26.5H275.062V10.63H287.538V13.9696H279.368V23.1604ZM290.467 26.5V10.63H297.698C299.17 10.63 300.43 10.8692 301.479 11.3476C302.546 11.8076 303.374 12.47 303.963 13.3348C304.552 14.1996 304.846 15.2484 304.846 16.4812C304.846 17.6772 304.552 18.7076 303.963 19.5724C303.374 20.4372 302.546 21.0996 301.479 21.5596C300.43 22.0196 299.17 22.2496 297.698 22.2496H292.868L294.827 20.4004V26.5H290.467ZM300.458 26.5L296.456 20.7316H301.093L305.15 26.5H300.458ZM294.827 20.8972L293.227 18.9376H297.394C298.406 18.9376 299.17 18.726 299.685 18.3028C300.2 17.8612 300.458 17.254 300.458 16.4812C300.458 15.69 300.2 15.0828 299.685 14.6596C299.17 14.2364 298.406 14.0248 297.394 14.0248H293.227L294.827 12.0652V20.8972ZM307.677 26.5V10.63H312.038V26.5H307.677ZM315.696 26.5V10.63H319.284L328.226 21.3664H326.598V10.63H330.876V26.5H327.288L318.318 15.7636H319.974V26.5H315.696ZM348.984 24.7888C348.396 25.212 347.733 25.58 346.997 25.8928C346.28 26.1872 345.525 26.408 344.734 26.5552C343.961 26.7208 343.198 26.8036 342.443 26.8036C340.677 26.8036 339.113 26.454 337.751 25.7548C336.39 25.0372 335.322 24.0528 334.55 22.8016C333.795 21.5504 333.418 20.1428 333.418 18.5788C333.418 16.978 333.804 15.5612 334.577 14.3284C335.35 13.0956 336.417 12.1204 337.779 11.4028C339.14 10.6852 340.686 10.3264 342.416 10.3264C343.961 10.3264 345.304 10.5656 346.445 11.044C347.604 11.504 348.57 12.2124 349.343 13.1692L346.473 15.736C345.939 15.1104 345.332 14.6504 344.651 14.356C343.989 14.0432 343.262 13.8868 342.471 13.8868C341.569 13.8868 340.769 14.0892 340.07 14.494C339.37 14.8804 338.818 15.4232 338.414 16.1224C338.009 16.8216 337.806 17.6404 337.806 18.5788C337.806 19.4804 338.009 20.29 338.414 21.0076C338.818 21.7068 339.37 22.2588 340.07 22.6636C340.769 23.05 341.588 23.2432 342.526 23.2432C343.299 23.2432 343.998 23.1236 344.624 22.8844C345.268 22.6452 345.902 22.2864 346.528 21.808L348.984 24.7888ZM345.01 24.844V18.358H348.984V24.7888L345.01 24.844Z"  fill="currentColor"/>
<path d="M61.1962 47.5L63.8971 33.995H68.7396C70.2702 33.995 71.4535 34.3294 72.2895 34.9983C73.1384 35.6671 73.5629 36.606 73.5629 37.815C73.5629 38.9726 73.3056 39.9565 72.7911 40.7668C72.2895 41.5642 71.5693 42.1752 70.6303 42.5996C69.6914 43.0241 68.5789 43.2363 67.2927 43.2363H62.836L63.6078 42.561L62.6045 47.5H61.1962ZM63.5692 42.6768L63.0676 41.9823H67.312C68.8425 41.9823 70.0258 41.6414 70.8619 40.9597C71.7107 40.2781 72.1352 39.2748 72.1352 37.9501C72.1352 37.0626 71.8329 36.3873 71.2284 35.9243C70.6239 35.4613 69.7557 35.2298 68.6239 35.2298H64.4566L65.2091 34.5159L63.5692 42.6768ZM78.6384 47.5965C77.6995 47.5965 76.8827 47.4228 76.1882 47.0756C75.5065 46.7154 74.9727 46.2138 74.5869 45.5707C74.2139 44.9276 74.0274 44.1688 74.0274 43.2942C74.0274 42.1366 74.2782 41.1076 74.7798 40.2073C75.2814 39.2941 75.976 38.5803 76.8634 38.0658C77.7509 37.5385 78.7606 37.2748 79.8924 37.2748C80.8313 37.2748 81.6416 37.4484 82.3233 37.7957C83.0178 38.143 83.5516 38.6382 83.9246 39.2813C84.3105 39.9244 84.5034 40.6832 84.5034 41.5578C84.5034 42.7154 84.2526 43.7508 83.751 44.664C83.2494 45.5643 82.5548 46.2781 81.6673 46.8055C80.7927 47.3328 79.7831 47.5965 78.6384 47.5965ZM78.7348 46.381C79.5837 46.381 80.3361 46.1817 80.9921 45.7829C81.6609 45.3714 82.1818 44.8054 82.5548 44.0852C82.9407 43.3649 83.1336 42.5482 83.1336 41.635C83.1336 40.6318 82.8378 39.8536 82.2461 39.3006C81.6673 38.7475 80.8506 38.471 79.7959 38.471C78.9599 38.471 78.2075 38.6768 77.5387 39.0883C76.8699 39.4999 76.3425 40.0658 75.9567 40.7861C75.5837 41.4935 75.3972 42.3102 75.3972 43.2363C75.3972 44.2267 75.6866 44.9984 76.2654 45.5514C76.857 46.1045 77.6802 46.381 78.7348 46.381ZM87.7312 47.5L85.744 37.3713H86.998L88.7923 46.7669H88.1749L93.5383 37.3713H94.6959L96.548 46.7669H95.9306L101.217 37.3713H102.548L96.8181 47.5H95.4869L93.6734 38.6639H94.0978L89.0431 47.5H87.7312ZM106.469 47.5965C105.505 47.5965 104.662 47.4228 103.942 47.0756C103.235 46.7154 102.688 46.2138 102.302 45.5707C101.929 44.9276 101.743 44.1623 101.743 43.2749C101.743 42.1173 101.987 41.0884 102.476 40.188C102.965 39.2877 103.633 38.5803 104.482 38.0658C105.331 37.5385 106.289 37.2748 107.357 37.2748C108.257 37.2748 109.035 37.4484 109.691 37.7957C110.347 38.1301 110.855 38.6189 111.215 39.262C111.588 39.9051 111.775 40.6768 111.775 41.5771C111.775 41.7829 111.762 41.9951 111.736 42.2138C111.711 42.4196 111.679 42.6189 111.64 42.8118H102.746L102.92 41.7893H111.003L110.444 42.1752C110.572 41.3649 110.515 40.6832 110.27 40.1301C110.026 39.5771 109.646 39.1591 109.132 38.8761C108.63 38.5803 108.026 38.4324 107.318 38.4324C106.495 38.4324 105.762 38.6382 105.119 39.0497C104.476 39.4485 103.974 40.008 103.614 40.7282C103.254 41.4356 103.074 42.2652 103.074 43.217C103.074 44.2331 103.363 45.0177 103.942 45.5707C104.534 46.1109 105.415 46.381 106.585 46.381C107.267 46.381 107.897 46.2717 108.476 46.053C109.055 45.8215 109.531 45.5064 109.904 45.1077L110.521 46.0916C110.045 46.5675 109.447 46.9405 108.727 47.2106C108.019 47.4678 107.267 47.5965 106.469 47.5965ZM113.097 47.5L115.103 37.3713H116.415L115.836 40.3617L115.682 39.8408C116.132 38.9533 116.724 38.3038 117.457 37.8922C118.203 37.4806 119.129 37.2748 120.235 37.2748L119.984 38.606C119.92 38.606 119.856 38.606 119.791 38.606C119.74 38.5931 119.676 38.5867 119.599 38.5867C118.518 38.5867 117.624 38.9018 116.917 39.5321C116.222 40.1494 115.746 41.0884 115.489 42.3488L114.467 47.5H113.097ZM120.304 47.5L122.31 37.3713H123.68L121.674 47.5H120.304ZM123.584 35.1333C123.313 35.1333 123.088 35.0433 122.908 34.8632C122.741 34.6831 122.657 34.4709 122.657 34.2265C122.657 33.9436 122.754 33.6992 122.947 33.4934C123.153 33.2876 123.41 33.1847 123.719 33.1847C123.989 33.1847 124.214 33.2683 124.394 33.4355C124.574 33.6027 124.664 33.815 124.664 34.0722C124.664 34.3809 124.561 34.6381 124.355 34.8439C124.149 35.0368 123.892 35.1333 123.584 35.1333ZM132.064 37.2748C132.977 37.2748 133.723 37.4549 134.302 37.815C134.893 38.1623 135.299 38.6703 135.517 39.3391C135.749 40.008 135.768 40.8054 135.575 41.7314L134.418 47.5H133.048L134.205 41.7122C134.411 40.7089 134.302 39.9244 133.877 39.3584C133.466 38.7925 132.733 38.5095 131.678 38.5095C130.598 38.5095 129.697 38.8054 128.977 39.397C128.27 39.9887 127.794 40.8761 127.549 42.0594L126.469 47.5H125.099L127.106 37.3713H128.417L127.839 40.2845L127.549 39.7829C128.038 38.9083 128.668 38.2716 129.44 37.8729C130.225 37.4742 131.099 37.2748 132.064 37.2748ZM141.494 51.3393C140.555 51.3393 139.7 51.2042 138.928 50.9341C138.156 50.6769 137.507 50.3039 136.979 49.8151L137.79 48.7733C138.201 49.1849 138.735 49.5129 139.391 49.7573C140.06 50.0016 140.793 50.1238 141.59 50.1238C142.876 50.1238 143.873 49.828 144.581 49.2364C145.288 48.6447 145.757 47.7315 145.989 46.4968L146.529 43.8344L147.05 42.1752L147.262 40.4388L147.86 37.3713H149.172L147.397 46.2653C147.05 48.0531 146.394 49.3457 145.43 50.1431C144.465 50.9406 143.153 51.3393 141.494 51.3393ZM142.169 47.1141C141.282 47.1141 140.497 46.9469 139.815 46.6125C139.146 46.2781 138.626 45.8087 138.253 45.2042C137.88 44.5868 137.693 43.8601 137.693 43.0241C137.693 42.2009 137.835 41.4421 138.118 40.7475C138.4 40.053 138.799 39.4485 139.314 38.934C139.828 38.4067 140.439 38.0015 141.146 37.7185C141.854 37.4227 142.632 37.2748 143.481 37.2748C144.291 37.2748 145.011 37.4163 145.642 37.6992C146.272 37.9822 146.767 38.4067 147.127 38.9726C147.5 39.5385 147.687 40.2588 147.687 41.1334C147.7 42.2395 147.481 43.2491 147.031 44.1623C146.581 45.0627 145.944 45.7829 145.121 46.3231C144.298 46.8505 143.314 47.1141 142.169 47.1141ZM142.439 45.8987C143.288 45.8987 144.04 45.7058 144.696 45.3199C145.365 44.9341 145.893 44.4067 146.278 43.7379C146.664 43.0562 146.857 42.2845 146.857 41.4228C146.857 40.4967 146.561 39.7764 145.97 39.262C145.378 38.7346 144.555 38.471 143.5 38.471C142.651 38.471 141.892 38.6639 141.224 39.0497C140.555 39.4356 140.028 39.9694 139.642 40.651C139.269 41.3199 139.082 42.0851 139.082 42.9469C139.082 43.873 139.378 44.5996 139.97 45.127C140.561 45.6415 141.384 45.8987 142.439 45.8987ZM155.525 47.5L158.226 33.995H159.635L156.934 47.5H155.525ZM167.636 37.2748C168.55 37.2748 169.296 37.4549 169.874 37.815C170.466 38.1623 170.871 38.6703 171.09 39.3391C171.321 40.008 171.341 40.8054 171.148 41.7314L169.99 47.5H168.62L169.778 41.7122C169.984 40.7089 169.874 39.9244 169.45 39.3584C169.038 38.7925 168.305 38.5095 167.251 38.5095C166.17 38.5095 165.27 38.8054 164.55 39.397C163.842 39.9887 163.366 40.8761 163.122 42.0594L162.042 47.5H160.672L162.678 37.3713H163.99L163.411 40.2845L163.122 39.7829C163.611 38.9083 164.241 38.2716 165.013 37.8729C165.797 37.4742 166.672 37.2748 167.636 37.2748ZM177.645 47.5965C176.783 47.5965 176.018 47.4228 175.349 47.0756C174.681 46.7283 174.16 46.2331 173.787 45.59C173.414 44.9469 173.227 44.1816 173.227 43.2942C173.227 42.4324 173.369 41.635 173.652 40.9019C173.935 40.1687 174.333 39.5321 174.848 38.9919C175.362 38.4388 175.967 38.0144 176.661 37.7185C177.369 37.4227 178.134 37.2748 178.957 37.2748C179.845 37.2748 180.597 37.4356 181.214 37.7571C181.832 38.0658 182.308 38.5224 182.642 39.1269C182.976 39.7186 183.144 40.4388 183.144 41.2877C183.144 42.2009 183.015 43.0434 182.758 43.8151C182.513 44.5868 182.147 45.2556 181.658 45.8215C181.169 46.3874 180.584 46.8248 179.902 47.1334C179.234 47.4421 178.481 47.5965 177.645 47.5965ZM177.935 46.381C178.783 46.381 179.536 46.1817 180.192 45.7829C180.861 45.3714 181.382 44.8054 181.755 44.0852C182.14 43.3649 182.333 42.5482 182.333 41.635C182.333 40.6318 182.038 39.8536 181.446 39.3006C180.867 38.7475 180.05 38.471 178.996 38.471C178.16 38.471 177.407 38.6768 176.738 39.0883C176.07 39.4999 175.542 40.0658 175.156 40.7861C174.783 41.4935 174.597 42.3102 174.597 43.2363C174.597 44.2267 174.886 44.9984 175.465 45.5514C176.057 46.1045 176.88 46.381 177.935 46.381ZM181.272 47.5L181.851 44.5868L182.43 42.5417L182.623 40.4195L184.07 33.1847H185.439L182.584 47.5H181.272ZM190.258 47.5965C189.37 47.5965 188.631 47.4164 188.039 47.0563C187.46 46.6961 187.061 46.1817 186.843 45.5128C186.624 44.844 186.598 44.053 186.766 43.1398L187.923 37.3713H189.293L188.135 43.1398C187.942 44.143 188.052 44.9341 188.463 45.5128C188.875 46.0788 189.595 46.3617 190.624 46.3617C191.692 46.3617 192.579 46.0659 193.287 45.4743C194.007 44.8826 194.489 43.9951 194.734 42.8118L195.814 37.3713H197.184L195.158 47.5H193.846L194.425 44.5868L194.714 45.0691C194.238 45.9437 193.608 46.5868 192.824 46.9984C192.052 47.3971 191.196 47.5965 190.258 47.5965ZM201.541 47.5965C200.718 47.5965 199.94 47.4807 199.207 47.2492C198.474 47.0177 197.908 46.7219 197.509 46.3617L198.165 45.2813C198.551 45.6286 199.059 45.9051 199.689 46.1109C200.32 46.3038 200.982 46.4003 201.677 46.4003C202.641 46.4003 203.381 46.2395 203.895 45.918C204.423 45.5964 204.686 45.1527 204.686 44.5868C204.686 44.2009 204.545 43.9115 204.262 43.7186C203.992 43.5128 203.638 43.3585 203.201 43.2556C202.763 43.1398 202.3 43.0305 201.812 42.9276C201.323 42.8247 200.86 42.6961 200.422 42.5417C199.985 42.3745 199.625 42.1237 199.342 41.7893C199.072 41.4549 198.937 41.0048 198.937 40.4388C198.937 39.7957 199.117 39.2362 199.477 38.7604C199.85 38.2845 200.365 37.9179 201.021 37.6607C201.677 37.4034 202.448 37.2748 203.336 37.2748C203.979 37.2748 204.615 37.3584 205.246 37.5256C205.876 37.6928 206.384 37.9243 206.77 38.2202L206.191 39.3198C205.792 39.0112 205.329 38.7925 204.802 38.6639C204.275 38.5224 203.747 38.4517 203.22 38.4517C202.281 38.4517 201.554 38.6253 201.04 38.9726C200.538 39.307 200.287 39.7507 200.287 40.3038C200.287 40.6896 200.422 40.9855 200.693 41.1912C200.976 41.397 201.336 41.5578 201.773 41.6736C202.21 41.7893 202.673 41.8987 203.162 42.0015C203.664 42.0916 204.127 42.2202 204.551 42.3874C204.988 42.5546 205.342 42.799 205.612 43.1205C205.895 43.4292 206.037 43.8665 206.037 44.4324C206.037 45.1013 205.85 45.6736 205.477 46.1495C205.104 46.6125 204.577 46.9727 203.895 47.2299C203.226 47.4743 202.442 47.5965 201.541 47.5965ZM210.846 47.5965C210.267 47.5965 209.772 47.4743 209.36 47.2299C208.949 46.9727 208.66 46.6125 208.492 46.1495C208.338 45.6865 208.325 45.1334 208.454 44.4903L210.306 35.1333H211.676L209.824 44.4324C209.695 45.0627 209.74 45.5514 209.959 45.8987C210.19 46.246 210.608 46.4196 211.213 46.4196C211.496 46.4196 211.772 46.381 212.042 46.3038C212.312 46.2138 212.557 46.0788 212.775 45.8987L213.103 46.9405C212.782 47.1849 212.422 47.3585 212.023 47.4614C211.624 47.5514 211.232 47.5965 210.846 47.5965ZM207.836 38.5095L208.049 37.3713H214.319L214.087 38.5095H207.836ZM215.076 47.5L217.082 37.3713H218.394L217.816 40.3617L217.661 39.8408C218.111 38.9533 218.703 38.3038 219.436 37.8922C220.182 37.4806 221.108 37.2748 222.214 37.2748L221.964 38.606C221.899 38.606 221.835 38.606 221.771 38.606C221.719 38.5931 221.655 38.5867 221.578 38.5867C220.497 38.5867 219.603 38.9018 218.896 39.5321C218.201 40.1494 217.726 41.0884 217.468 42.3488L216.446 47.5H215.076ZM222.283 47.5L224.289 37.3713H225.659L223.653 47.5H222.283ZM225.563 35.1333C225.293 35.1333 225.067 35.0433 224.887 34.8632C224.72 34.6831 224.637 34.4709 224.637 34.2265C224.637 33.9436 224.733 33.6992 224.926 33.4934C225.132 33.2876 225.389 33.1847 225.698 33.1847C225.968 33.1847 226.193 33.2683 226.373 33.4355C226.553 33.6027 226.643 33.815 226.643 34.0722C226.643 34.3809 226.54 34.6381 226.334 34.8439C226.129 35.0368 225.871 35.1333 225.563 35.1333ZM231.4 47.5965C230.538 47.5965 229.773 47.4228 229.104 47.0756C228.435 46.7283 227.914 46.2331 227.541 45.59C227.168 44.9469 226.982 44.1816 226.982 43.2942C226.982 42.4324 227.123 41.635 227.406 40.9019C227.689 40.1687 228.088 39.5321 228.602 38.9919C229.117 38.4388 229.721 38.0144 230.416 37.7185C231.123 37.4227 231.889 37.2748 232.712 37.2748C233.599 37.2748 234.352 37.4356 234.969 37.7571C235.586 38.0658 236.062 38.5224 236.397 39.1269C236.731 39.7186 236.898 40.4388 236.898 41.2877C236.898 42.5096 236.673 43.5964 236.223 44.5482C235.773 45.5 235.136 46.246 234.313 46.7862C233.49 47.3264 232.519 47.5965 231.4 47.5965ZM231.689 46.381C232.538 46.381 233.29 46.1817 233.946 45.7829C234.615 45.3714 235.136 44.8054 235.509 44.0852C235.895 43.3649 236.088 42.5482 236.088 41.635C236.088 40.6318 235.792 39.8536 235.2 39.3006C234.622 38.7475 233.805 38.471 232.75 38.471C231.914 38.471 231.162 38.6768 230.493 39.0883C229.824 39.4999 229.297 40.0658 228.911 40.7861C228.538 41.4935 228.352 42.3102 228.352 43.2363C228.352 44.2267 228.641 44.9984 229.22 45.5514C229.811 46.1045 230.635 46.381 231.689 46.381ZM235.027 47.5L235.606 44.5868L236.184 42.5417L236.377 40.4195L236.995 37.3713H238.365L236.339 47.5H235.027ZM239.768 47.5L242.623 33.1847H243.993L241.138 47.5H239.768ZM252.275 40.0337H259.413L259.182 41.2491H252.043L252.275 40.0337ZM251.175 46.2653H259.297L259.047 47.5H249.516L252.217 33.995H261.477L261.227 35.2298H253.374L251.175 46.2653ZM259.882 47.5L265.342 41.9051L265.187 42.5803L262.178 37.3713H263.625L266.133 41.7507L265.515 41.7314L269.721 37.3713H271.303L266.113 42.7154L266.229 41.9437L269.451 47.5H267.985L265.342 42.8697H265.959L261.502 47.5H259.882ZM275.618 47.5965C274.653 47.5965 273.817 47.4228 273.11 47.0756C272.415 46.7154 271.875 46.2138 271.489 45.5707C271.116 44.9276 270.929 44.1688 270.929 43.2942C270.929 42.1366 271.18 41.1076 271.682 40.2073C272.183 39.2941 272.878 38.5803 273.765 38.0658C274.666 37.5385 275.688 37.2748 276.833 37.2748C277.772 37.2748 278.576 37.4484 279.245 37.7957C279.926 38.1301 280.454 38.6317 280.827 39.3006L279.669 39.9758C279.386 39.4613 278.994 39.0819 278.492 38.8375C278.003 38.5931 277.412 38.471 276.717 38.471C275.868 38.471 275.11 38.6768 274.441 39.0883C273.772 39.4999 273.245 40.0658 272.859 40.7861C272.486 41.4935 272.299 42.3102 272.299 43.2363C272.299 44.2267 272.589 44.9984 273.167 45.5514C273.759 46.1045 274.595 46.381 275.675 46.381C276.331 46.381 276.936 46.2588 277.489 46.0145C278.055 45.7572 278.518 45.3907 278.878 44.9148L279.862 45.6672C279.425 46.2717 278.827 46.7476 278.068 47.0949C277.309 47.4293 276.492 47.5965 275.618 47.5965ZM285.972 47.5965C285.007 47.5965 284.165 47.4228 283.444 47.0756C282.737 46.7154 282.19 46.2138 281.805 45.5707C281.432 44.9276 281.245 44.1623 281.245 43.2749C281.245 42.1173 281.489 41.0884 281.978 40.188C282.467 39.2877 283.136 38.5803 283.985 38.0658C284.834 37.5385 285.792 37.2748 286.859 37.2748C287.76 37.2748 288.538 37.4484 289.194 37.7957C289.85 38.1301 290.358 38.6189 290.718 39.262C291.091 39.9051 291.277 40.6768 291.277 41.5771C291.277 41.7829 291.264 41.9951 291.239 42.2138C291.213 42.4196 291.181 42.6189 291.142 42.8118H282.248L282.422 41.7893H290.506L289.946 42.1752C290.075 41.3649 290.017 40.6832 289.772 40.1301C289.528 39.5771 289.149 39.1591 288.634 38.8761C288.133 38.5803 287.528 38.4324 286.821 38.4324C285.998 38.4324 285.264 38.6382 284.621 39.0497C283.978 39.4485 283.477 40.008 283.116 40.7282C282.756 41.4356 282.576 42.2652 282.576 43.217C282.576 44.2331 282.866 45.0177 283.444 45.5707C284.036 46.1109 284.917 46.381 286.088 46.381C286.769 46.381 287.399 46.2717 287.978 46.053C288.557 45.8215 289.033 45.5064 289.406 45.1077L290.023 46.0916C289.547 46.5675 288.949 46.9405 288.229 47.2106C287.522 47.4678 286.769 47.5965 285.972 47.5965ZM292.599 47.5L295.455 33.1847H296.824L293.969 47.5H292.599ZM297.395 47.5L300.25 33.1847H301.62L298.764 47.5H297.395ZM306.82 47.5965C305.855 47.5965 305.013 47.4228 304.293 47.0756C303.585 46.7154 303.039 46.2138 302.653 45.5707C302.28 44.9276 302.093 44.1623 302.093 43.2749C302.093 42.1173 302.338 41.0884 302.826 40.188C303.315 39.2877 303.984 38.5803 304.833 38.0658C305.682 37.5385 306.64 37.2748 307.708 37.2748C308.608 37.2748 309.386 37.4484 310.042 37.7957C310.698 38.1301 311.206 38.6189 311.566 39.262C311.939 39.9051 312.126 40.6768 312.126 41.5771C312.126 41.7829 312.113 41.9951 312.087 42.2138C312.061 42.4196 312.029 42.6189 311.991 42.8118H303.097L303.27 41.7893H311.354L310.794 42.1752C310.923 41.3649 310.865 40.6832 310.621 40.1301C310.376 39.5771 309.997 39.1591 309.483 38.8761C308.981 38.5803 308.376 38.4324 307.669 38.4324C306.846 38.4324 306.113 38.6382 305.47 39.0497C304.827 39.4485 304.325 40.008 303.965 40.7282C303.605 41.4356 303.425 42.2652 303.425 43.217C303.425 44.2331 303.714 45.0177 304.293 45.5707C304.884 46.1109 305.765 46.381 306.936 46.381C307.618 46.381 308.248 46.2717 308.827 46.053C309.405 45.8215 309.881 45.5064 310.254 45.1077L310.872 46.0916C310.396 46.5675 309.798 46.9405 309.077 47.2106C308.37 47.4678 307.618 47.5965 306.82 47.5965ZM320.412 37.2748C321.325 37.2748 322.071 37.4549 322.65 37.815C323.242 38.1623 323.647 38.6703 323.866 39.3391C324.097 40.008 324.116 40.8054 323.923 41.7314L322.766 47.5H321.396L322.554 41.7122C322.759 40.7089 322.65 39.9244 322.226 39.3584C321.814 38.7925 321.081 38.5095 320.026 38.5095C318.946 38.5095 318.046 38.8054 317.325 39.397C316.618 39.9887 316.142 40.8761 315.898 42.0594L314.817 47.5H313.447L315.454 37.3713H316.766L316.187 40.2845L315.898 39.7829C316.386 38.9083 317.017 38.2716 317.788 37.8729C318.573 37.4742 319.448 37.2748 320.412 37.2748ZM330.691 47.5965C329.726 47.5965 328.89 47.4228 328.183 47.0756C327.488 46.7154 326.948 46.2138 326.562 45.5707C326.189 44.9276 326.003 44.1688 326.003 43.2942C326.003 42.1366 326.254 41.1076 326.755 40.2073C327.257 39.2941 327.951 38.5803 328.839 38.0658C329.739 37.5385 330.762 37.2748 331.906 37.2748C332.845 37.2748 333.649 37.4484 334.318 37.7957C335 38.1301 335.527 38.6317 335.9 39.3006L334.743 39.9758C334.46 39.4613 334.067 39.0819 333.566 38.8375C333.077 38.5931 332.485 38.471 331.791 38.471C330.942 38.471 330.183 38.6768 329.514 39.0883C328.845 39.4999 328.318 40.0658 327.932 40.7861C327.559 41.4935 327.373 42.3102 327.373 43.2363C327.373 44.2267 327.662 44.9984 328.241 45.5514C328.833 46.1045 329.669 46.381 330.749 46.381C331.405 46.381 332.009 46.2588 332.562 46.0145C333.128 45.7572 333.591 45.3907 333.952 44.9148L334.935 45.6672C334.498 46.2717 333.9 46.7476 333.141 47.0949C332.382 47.4293 331.566 47.5965 330.691 47.5965ZM341.045 47.5965C340.081 47.5965 339.238 47.4228 338.518 47.0756C337.811 46.7154 337.264 46.2138 336.878 45.5707C336.505 44.9276 336.319 44.1623 336.319 43.2749C336.319 42.1173 336.563 41.0884 337.052 40.188C337.54 39.2877 338.209 38.5803 339.058 38.0658C339.907 37.5385 340.865 37.2748 341.933 37.2748C342.833 37.2748 343.611 37.4484 344.267 37.7957C344.923 38.1301 345.431 38.6189 345.791 39.262C346.164 39.9051 346.351 40.6768 346.351 41.5771C346.351 41.7829 346.338 41.9951 346.312 42.2138C346.286 42.4196 346.254 42.6189 346.216 42.8118H337.322L337.495 41.7893H345.579L345.02 42.1752C345.148 41.3649 345.09 40.6832 344.846 40.1301C344.602 39.5771 344.222 39.1591 343.708 38.8761C343.206 38.5803 342.602 38.4324 341.894 38.4324C341.071 38.4324 340.338 38.6382 339.695 39.0497C339.052 39.4485 338.55 40.008 338.19 40.7282C337.83 41.4356 337.65 42.2652 337.65 43.217C337.65 44.2331 337.939 45.0177 338.518 45.5707C339.11 46.1109 339.991 46.381 341.161 46.381C341.843 46.381 342.473 46.2717 343.052 46.053C343.631 45.8215 344.106 45.5064 344.479 45.1077L345.097 46.0916C344.621 46.5675 344.023 46.9405 343.303 47.2106C342.595 47.4678 341.843 47.5965 341.045 47.5965Z"  fill="currentColor"/>
<defs>
<clipPath id="clip0_8730_28424">
<rect width="60" height="60" fill="white"/>
</clipPath>
<clipPath id="clip1_8730_28424">
<rect width="49.8" height="60" fill="white" transform="translate(4.5625 -0.5)"/>
</clipPath>
</defs>
</svg>
