<svg width="25" height="24" viewBox="0 0 25 24" fill="none" xmlns="http://www.w3.org/2000/svg">
<path d="M4.75596 18.4566C4.75596 17.3865 4.76241 16.3171 4.75273 15.247C4.7495 14.7962 4.7366 14.7889 4.31886 14.6728C2.53821 14.176 1.22934 13.1066 0.444666 11.4445C0.112408 10.7397 -0.0133988 9.9647 0.00111725 9.18406C0.0317625 7.42357 0.719666 5.94132 2.10112 4.85341C3.0995 4.06632 4.25757 3.52357 5.58257 3.65341C6.28821 3.72277 6.69789 3.50019 7.04144 2.89293C7.83983 1.48164 9.15434 0.696961 10.6608 0.246961C11.606 -0.0352966 12.5979 -0.0659418 13.5826 0.105832C15.5785 0.455026 17.1035 1.49535 18.131 3.22841C18.3334 3.56954 18.556 3.68728 18.9342 3.64615C20.3092 3.49857 21.5301 3.90906 22.6253 4.71632C23.2084 5.14696 23.6906 5.67035 24.0737 6.29615C24.9447 7.72116 25.1285 9.24535 24.6785 10.8171C24.364 11.9163 23.7027 12.8357 22.7963 13.5583C22.1672 14.0599 21.456 14.405 20.6834 14.6284C20.1584 14.7808 20.1519 14.7784 20.1511 15.3445C20.1487 17.226 20.1511 19.1083 20.1511 20.9897C20.1511 21.2478 20.1527 21.5058 20.1431 21.7647C20.1277 22.1647 19.935 22.4841 19.5939 22.6712C19.0277 22.9816 18.4455 23.2599 17.7971 23.3792C17.3068 23.4695 16.8285 23.6244 16.3374 23.7115C15.8648 23.7954 15.3834 23.8349 14.9051 23.8841C13.1834 24.0583 11.4648 24.0252 9.74386 23.8397C8.5987 23.7163 7.48176 23.4849 6.37934 23.1639C6.05676 23.0695 5.7737 22.8889 5.46967 22.7574C4.97692 22.5454 4.77854 22.1736 4.77934 21.6663C4.78015 21.1865 4.78418 20.7066 4.78499 20.2276C4.7866 19.6373 4.78579 19.047 4.78579 18.4566C4.77531 18.4566 4.76563 18.4566 4.75596 18.4566ZM5.72047 17.0647C5.73338 17.0647 5.74708 17.0647 5.75999 17.0647C5.75999 17.6365 5.78338 18.2099 5.75192 18.78C5.72934 19.2026 5.89144 19.4413 6.29225 19.5478C6.93499 19.7195 7.56725 19.9365 8.21886 20.0639C9.69467 20.3526 11.1955 20.4865 12.6963 20.4655C14.0648 20.4454 15.4374 20.3437 16.7834 20.0607C17.3793 19.9349 17.9648 19.7566 18.5511 19.5873C18.8947 19.4881 19.1318 19.2986 19.1318 18.8865C19.1334 17.6695 19.16 16.4518 19.164 15.2341C19.1648 14.8695 19.0785 14.7752 18.7035 14.7534C17.8084 14.701 17.0172 14.3671 16.2584 13.922C15.9672 13.751 15.7245 13.5244 15.4656 13.3179C15.2374 13.1349 15.2068 12.8163 15.3455 12.6179C15.4898 12.4115 15.7447 12.3889 16.0366 12.5599C16.1479 12.626 16.264 12.6897 16.3592 12.776C16.7511 13.13 17.2253 13.3324 17.7084 13.5236C18.5261 13.8478 19.3753 13.9002 20.2181 13.7115C21.1753 13.497 22.014 13.03 22.6705 12.2833C23.5205 11.3163 24.0156 10.2026 23.8947 8.90261C23.7761 7.62841 23.256 6.53486 22.2422 5.69454C21.4108 5.00583 20.4713 4.63245 19.3914 4.6389C18.8479 4.64212 18.7616 4.74616 18.8608 5.26632C18.9543 5.76148 18.9519 6.25664 18.9487 6.75503C18.9479 6.96067 18.9213 7.16228 18.8084 7.3397C18.6132 7.64777 18.2301 7.62761 18.0479 7.30987C17.9592 7.15503 17.964 6.99051 17.9689 6.82519C17.989 6.17922 17.9164 5.55422 17.7503 4.91793C17.5027 3.96874 16.989 3.19938 16.314 2.53486C15.4487 1.68406 14.3858 1.2147 13.1721 1.04132C11.8632 0.85422 10.6818 1.17116 9.56483 1.80825C8.51402 2.40745 7.81483 3.31793 7.31805 4.39777C7.15112 4.76148 7.04305 4.82277 6.62531 4.78809C6.3487 4.7647 6.0737 4.71309 5.79628 4.69777C5.08741 4.65745 4.38015 4.69454 3.7366 5.02438C3.04225 5.38003 2.41241 5.81793 1.93418 6.46148C0.953537 7.77841 0.705149 9.21309 1.26886 10.7413C1.87854 12.3937 3.12934 13.3978 4.83499 13.7445C6.13741 14.0091 7.36725 13.6679 8.46241 12.9018C8.64386 12.7752 8.81725 12.63 9.01321 12.5324C9.24144 12.4179 9.4495 12.5018 9.60192 12.6986C9.75354 12.8953 9.69467 13.0792 9.54144 13.2453C9.46644 13.326 9.38741 13.405 9.30192 13.4736C8.40273 14.1913 7.42047 14.7066 6.23499 14.751C5.7995 14.7671 5.73096 14.8478 5.72289 15.2937C5.71321 15.8841 5.72047 16.4744 5.72047 17.0647ZM12.3761 23.076C13.1019 23.0841 13.8197 23.0203 14.5398 22.9413C15.1108 22.8784 15.6721 22.7663 16.2406 22.7034C17.0785 22.6107 17.8697 22.3921 18.6414 22.0599C18.9648 21.9203 19.1003 21.7115 19.1237 21.3929C19.1358 21.2276 19.1471 21.0615 19.1422 20.8962C19.131 20.4921 19.0713 20.4389 18.6713 20.5502C18.2455 20.6695 17.8374 20.8865 17.406 20.9454C16.0326 21.1324 14.6721 21.4171 13.2729 21.4276C11.656 21.4405 10.0511 21.3703 8.45838 21.0833C7.93176 20.9881 7.39386 20.9599 6.8866 20.7671C6.62773 20.6687 6.36079 20.5897 6.09628 20.5083C5.85918 20.4349 5.75838 20.5389 5.73096 20.7744C5.63176 21.6373 5.76805 21.872 6.58176 22.1945C6.63257 22.2155 6.68741 22.2292 6.73902 22.2486C7.4737 22.5179 8.24467 22.6058 9.01079 22.7389C10.1285 22.9333 11.2503 23.0091 12.3761 23.076Z" fill="white"/>
</svg>
