<svg width="23" height="24" viewBox="0 0 23 24" fill="none" xmlns="http://www.w3.org/2000/svg">
<mask id="mask0_7777_11119" style="mask-type:luminance" maskUnits="userSpaceOnUse" x="3" y="3" width="20" height="21">
<path d="M3.47656 3.70703H23.0011V23.8975H3.47656V3.70703Z" fill="white"/>
</mask>
<g mask="url(#mask0_7777_11119)">
<path d="M20.2814 11.3984H19.8666C18.9662 11.3984 18.1676 11.8364 17.6749 12.5085L16.5145 12.5725V11.5785C16.5145 11.4723 16.4276 11.3865 16.3213 11.3865H14.4426V10.2104L16.4685 7.83344C16.472 7.82947 16.4745 7.8255 16.477 7.82203C16.479 7.81905 16.481 7.81657 16.483 7.81409C16.489 7.80467 16.494 7.79524 16.4985 7.78532C16.4995 7.78334 16.5 7.78135 16.5005 7.77937C16.504 7.77094 16.507 7.76201 16.509 7.75308C16.5095 7.74961 16.5105 7.74663 16.511 7.74316C16.513 7.73324 16.514 7.72282 16.514 7.71241C16.514 7.71141 16.5145 7.71042 16.5145 7.70943V6.33889C16.5145 6.23324 16.4276 6.14743 16.3213 6.14743H16.0228C16.0238 5.70497 15.898 5.3384 15.6465 5.05566C15.3031 4.66925 14.8204 4.55268 14.5868 4.51796C14.3048 3.8131 13.4054 3.75556 12.8743 3.83741C12.8364 3.80814 12.7859 3.77491 12.7216 3.74217C12.6267 3.69356 12.5104 3.73026 12.4615 3.82451C12.4121 3.91875 12.4495 4.03433 12.5444 4.08294C12.6292 4.1261 12.6701 4.16776 12.6701 4.16776C12.7156 4.21985 12.7864 4.24366 12.8543 4.22977C12.8578 4.22927 13.1803 4.16627 13.5202 4.21042C13.9335 4.26399 14.174 4.4386 14.2554 4.74415C14.2774 4.8255 14.3497 4.88304 14.4346 4.88651C14.4401 4.88701 15.0051 4.91379 15.3565 5.30913C15.5432 5.51945 15.637 5.8007 15.636 6.14743H9.69882C9.75871 5.84187 9.96236 5.28383 10.6576 5.21637C10.756 5.20695 10.8313 5.12461 10.8318 5.02639C10.8318 5.0254 10.8333 4.92074 10.8688 4.77987C10.8942 4.67719 10.8313 4.57352 10.7275 4.54772C10.6237 4.52243 10.5189 4.58493 10.4934 4.6876C10.4775 4.7511 10.467 4.80864 10.4595 4.85824C9.67386 5.01102 9.37438 5.68066 9.3045 6.14743H8.98955C8.88274 6.14743 8.79589 6.23324 8.79589 6.33889V7.70943C8.79589 7.71042 8.79639 7.71141 8.79639 7.71241C8.79639 7.72282 8.79788 7.73324 8.79938 7.74316C8.79988 7.74663 8.80088 7.74961 8.80138 7.75308C8.80387 7.76201 8.80637 7.77094 8.80986 7.77937C8.81036 7.78135 8.81086 7.78334 8.81186 7.78532C8.81635 7.79524 8.82134 7.80467 8.82783 7.81409C8.82933 7.81657 8.83132 7.81905 8.83332 7.82203C8.83632 7.8255 8.83881 7.82947 8.84181 7.83344L10.8239 10.1583V11.3865H8.98955C8.88274 11.3865 8.79589 11.4723 8.79589 11.5785V12.6474H6.45346C6.41503 12.6474 6.37709 12.6588 6.34515 12.6802L3.61639 14.5046C3.57247 14.5338 3.54302 14.5795 3.53404 14.6316C3.52505 14.6831 3.53803 14.7357 3.56948 14.7779L4.89866 16.5443C4.93011 16.5854 4.97653 16.6127 5.02794 16.6196C5.03642 16.6206 5.04491 16.6211 5.05389 16.6211C5.09632 16.6211 5.13825 16.6072 5.17219 16.5815L6.76741 15.3553H8.79589V16.5314H8.11108C8.00426 16.5314 7.91791 16.6172 7.91791 16.7228V17.8984C7.91791 18.0041 8.00426 18.0899 8.11108 18.0899H8.69007V23.6658C8.69007 23.7714 8.77642 23.8572 8.88323 23.8572H22.0244C22.1312 23.8572 22.2175 23.7714 22.2175 23.6658V18.0899H22.7965C22.9034 18.0899 22.9897 18.0041 22.9897 17.8984V16.7228C22.9897 16.6172 22.9034 16.5314 22.7965 16.5314H21.6935C22.4706 16.0586 22.9897 15.2089 22.9897 14.2412V14.0829C22.9897 12.6028 21.7748 11.3984 20.2814 11.3984ZM17.4334 12.9059C17.2572 13.2615 17.1583 13.6608 17.1583 14.0829V14.2412C17.1583 14.6539 17.2527 15.0452 17.4214 15.3949L16.5145 15.3448V12.9565L17.4334 12.9059ZM20.0773 12.76C20.8494 12.7615 21.4768 13.385 21.4768 14.1504C21.4768 14.9163 20.8494 15.5393 20.0773 15.5413L19.917 15.5323C19.2173 15.455 18.6712 14.8647 18.6712 14.1504C18.6712 13.4361 19.2173 12.8463 19.917 12.769L20.0773 12.76ZM18.2844 14.1504C18.2844 14.6772 18.517 15.1504 18.8858 15.4758L17.8731 15.4197C17.665 15.075 17.5447 14.6717 17.5447 14.2412V14.0829C17.5447 13.6425 17.6705 13.2308 17.8881 12.8806L18.8858 12.8255C18.517 13.1509 18.2844 13.6241 18.2844 14.1504ZM18.4546 16.5314H16.5145V15.7288L17.6575 15.7918C17.8701 16.0884 18.1411 16.3404 18.4546 16.5314ZM12.6552 13.1688C13.2012 13.1688 13.6455 13.6092 13.6455 14.1504C13.6455 14.6921 13.2012 15.1325 12.6552 15.1325C12.1091 15.1325 11.6649 14.6921 11.6649 14.1504C11.6649 13.6092 12.1091 13.1688 12.6552 13.1688ZM14.0323 14.1504C14.0323 13.7392 13.8476 13.3696 13.5561 13.1192L16.1276 12.9778V15.3235L13.5561 15.1817C13.8476 14.9312 14.0323 14.5621 14.0323 14.1504ZM9.18271 6.53036H16.1276V7.51796H9.18271V6.53036ZM12.6532 7.9381H12.6572L15.901 7.90536L14.2035 9.89643H11.1069L9.40932 7.90536L12.6532 7.9381ZM11.2102 10.2799H14.0557V11.3865H11.2102V10.2799ZM6.70153 14.9718C6.6586 14.9718 6.61668 14.9862 6.58323 15.012L5.09083 16.1588L4.00073 14.7099L6.51236 13.0309H8.79589V14.9718H6.70153ZM9.18271 15.1638V11.7699H16.1276V12.5939L12.6462 12.7858C11.891 12.7908 11.2781 13.4009 11.2781 14.1504C11.2781 14.9004 11.891 15.5105 12.6462 15.5155L16.1276 15.7074V16.5314H9.18271V15.1638ZM21.8307 23.4738H9.0769V18.0899H21.8307V23.4738ZM22.6034 16.9148V17.7069H8.30424V16.9148H19.6211C19.7019 16.9217 19.7838 16.9262 19.8666 16.9262H20.2814C20.3643 16.9262 20.4461 16.9217 20.527 16.9148H22.6034ZM22.6034 14.2412C22.6034 15.4326 21.6855 16.4153 20.514 16.5314H19.634C19.0635 16.4748 18.5534 16.2124 18.1801 15.8205L19.8826 15.9143C19.9455 15.9212 20.0094 15.9247 20.0743 15.9247C21.0611 15.9247 21.8637 15.1286 21.8637 14.1504C21.8637 13.1722 21.0611 12.3766 20.0743 12.3766C20.0094 12.3766 19.9455 12.3801 19.8826 12.387L18.2035 12.4793C18.6258 12.0492 19.2148 11.7814 19.8666 11.7814H20.2814C21.5617 11.7814 22.6034 12.8141 22.6034 14.0829V14.2412Z" fill="white"/>
</g>
<path d="M12.6532 14.6358C12.9232 14.6358 13.1424 14.418 13.1424 14.1506C13.1424 13.8833 12.9232 13.666 12.6532 13.666C12.3837 13.666 12.1641 13.8833 12.1641 14.1506C12.1641 14.418 12.3837 14.6358 12.6532 14.6358ZM12.6532 14.049C12.7096 14.049 12.756 14.0946 12.756 14.1506C12.756 14.2067 12.7096 14.2523 12.6532 14.2523C12.5968 14.2523 12.5509 14.2067 12.5509 14.1506C12.5509 14.0946 12.5968 14.049 12.6532 14.049Z" fill="white"/>
<path d="M10.5896 12.377H9.87285C9.76654 12.377 9.67969 12.4628 9.67969 12.5684C9.67969 12.6746 9.76654 12.7604 9.87285 12.7604H10.5896C10.6964 12.7604 10.7828 12.6746 10.7828 12.5684C10.7828 12.4628 10.6964 12.377 10.5896 12.377Z" fill="white"/>
<path d="M10.5896 13.1211H9.87285C9.76654 13.1211 9.67969 13.2069 9.67969 13.3126C9.67969 13.4187 9.76654 13.5045 9.87285 13.5045H10.5896C10.6964 13.5045 10.7828 13.4187 10.7828 13.3126C10.7828 13.2069 10.6964 13.1211 10.5896 13.1211Z" fill="white"/>
<path d="M10.5896 13.8652H9.87285C9.76654 13.8652 9.67969 13.951 9.67969 14.0567C9.67969 14.1629 9.76654 14.2487 9.87285 14.2487H10.5896C10.6964 14.2487 10.7828 14.1629 10.7828 14.0567C10.7828 13.951 10.6964 13.8652 10.5896 13.8652Z" fill="white"/>
<path d="M11.4999 3.66571C11.431 3.68208 11.3646 3.70292 11.3017 3.72772C11.2024 3.76691 11.154 3.87802 11.1934 3.97673C11.2234 4.05163 11.2962 4.09776 11.3731 4.09776C11.3966 4.09776 11.421 4.09329 11.4445 4.08387C11.4904 4.06601 11.5398 4.05014 11.5912 4.03823C11.695 4.01294 11.7584 3.90927 11.7335 3.80659C11.708 3.70391 11.6037 3.64042 11.4999 3.66571Z" fill="white"/>
<mask id="mask1_7777_11119" style="mask-type:luminance" maskUnits="userSpaceOnUse" x="0" y="17" width="8" height="7">
<path d="M0 17.168H7.30879V23.9998H0V17.168Z" fill="white"/>
</mask>
<g mask="url(#mask1_7777_11119)">
<path d="M6.67073 18.6957C6.43713 18.3554 5.48978 17.1699 3.64998 17.1699C1.81018 17.1699 0.862826 18.3554 0.629232 18.6957C0.27934 18.7409 0.0078125 19.038 0.0078125 19.3971V19.4293C0.0078125 19.7592 0.236914 20.0365 0.545378 20.1149V22.663C0.545378 23.2989 1.06447 23.9854 1.90302 23.9854H3.57411C3.59757 23.9953 3.62303 24.0008 3.64998 24.0008H5.39694C6.23548 24.0008 6.75458 23.3143 6.75458 22.6779V20.1149C7.06304 20.0365 7.29214 19.7597 7.29214 19.4293V19.3971C7.29214 19.038 7.02062 18.7409 6.67073 18.6957ZM3.64998 17.5529C5.00961 17.5529 5.8227 18.2716 6.17958 18.6888H1.12038C1.47776 18.2716 2.29084 17.5529 3.64998 17.5529ZM6.36775 22.6779C6.36775 23.1297 5.9964 23.6173 5.39694 23.6173H3.72585C3.70239 23.6074 3.67693 23.6025 3.64998 23.6025H1.90302C1.30356 23.6025 0.932205 23.1144 0.932205 22.663V20.1377H3.57461C3.59757 20.1476 3.62303 20.1531 3.64998 20.1531H6.36775V22.6779ZM6.90532 19.4293C6.90532 19.6089 6.75807 19.7542 6.57789 19.7542H0.72207C0.541385 19.7542 0.39464 19.6089 0.39464 19.4293V19.3971C0.39464 19.2175 0.541385 19.0722 0.72207 19.0722H6.57789C6.75807 19.0722 6.90532 19.2175 6.90532 19.3971V19.4293Z" fill="white"/>
</g>
<path d="M10.644 20.1386H11.494C11.8275 20.1386 12.099 19.8698 12.099 19.5389V19.5216C12.099 19.1907 11.8275 18.9219 11.494 18.9219H10.644C10.3101 18.9219 10.0391 19.1907 10.0391 19.5216V19.5389C10.0391 19.8698 10.3101 20.1386 10.644 20.1386ZM10.4259 19.5216C10.4259 19.402 10.5237 19.3053 10.644 19.3053H11.494C11.6143 19.3053 11.7122 19.402 11.7122 19.5216V19.5389C11.7122 19.6585 11.6143 19.7552 11.494 19.7552H10.644C10.5237 19.7552 10.4259 19.6585 10.4259 19.5389V19.5216Z" fill="white"/>
<path d="M13.2612 20.1386H14.1112C14.4446 20.1386 14.7162 19.8698 14.7162 19.5389V19.5216C14.7162 19.1907 14.4446 18.9219 14.1112 18.9219H13.2612C12.9278 18.9219 12.6562 19.1907 12.6562 19.5216V19.5389C12.6562 19.8698 12.9278 20.1386 13.2612 20.1386ZM13.0431 19.5216C13.0431 19.402 13.1409 19.3053 13.2612 19.3053H14.1112C14.2315 19.3053 14.3293 19.402 14.3293 19.5216V19.5389C14.3293 19.6585 14.2315 19.7552 14.1112 19.7552H13.2612C13.1409 19.7552 13.0431 19.6585 13.0431 19.5389V19.5216Z" fill="white"/>
<path d="M14.7116 3.58327C14.9028 3.70034 15.1059 3.73803 15.2881 3.73803C15.6046 3.73803 15.8576 3.62444 15.8741 3.617C15.9255 3.59319 15.9639 3.54855 15.9789 3.49399C16.0992 3.06541 16.0478 2.70331 15.8267 2.41809C15.358 1.81293 14.2909 1.81641 14.2464 1.81641C14.194 1.8169 14.1446 1.83823 14.1087 1.87543C14.0722 1.91264 14.0533 1.96274 14.0548 2.01432C14.0807 2.805 14.3018 3.33327 14.7116 3.58327ZM15.5207 2.65222C15.6505 2.82037 15.6864 3.03268 15.6295 3.29905C15.4833 3.34518 15.1698 3.41313 14.9143 3.25738C14.6582 3.10063 14.5005 2.74101 14.4536 2.21075C14.7451 2.23803 15.2732 2.33178 15.5207 2.65222Z" fill="white"/>
<mask id="mask2_7777_11119" style="mask-type:luminance" maskUnits="userSpaceOnUse" x="11" y="0" width="3" height="3">
<path d="M11.3984 0H13.3151V2.18403H11.3984V0Z" fill="white"/>
</mask>
<g mask="url(#mask2_7777_11119)">
<path d="M12.0451 2.09458C12.369 2.09458 12.6365 1.99388 12.8422 1.79299C13.3907 1.25827 13.2575 0.209161 13.2515 0.164518C13.245 0.113427 13.2175 0.0672962 13.1756 0.0365422C13.1342 0.00529218 13.0818 -0.00760462 13.0304 0.00033189C12.2412 0.122356 11.7396 0.404598 11.5389 0.83813C11.2824 1.39269 11.6328 1.96214 11.6478 1.98595C11.6777 2.03406 11.7271 2.0663 11.7835 2.07474C11.8744 2.08813 11.9617 2.09458 12.0451 2.09458ZM11.8918 0.995868C12.0176 0.726026 12.358 0.527614 12.8821 0.416999C12.8901 0.707177 12.8611 1.23793 12.5702 1.52067C12.4179 1.66898 12.2098 1.72999 11.9363 1.70668C11.8714 1.56829 11.7646 1.26769 11.8918 0.995868Z" fill="white"/>
</g>
<path d="M9.89342 1.94865C9.12475 1.98585 8.5198 2.85688 8.49435 2.89359C8.4649 2.93625 8.45442 2.98883 8.4649 3.03942C8.47488 3.09002 8.50533 3.13416 8.54925 3.16244C9.01395 3.46006 9.42723 3.60886 9.78361 3.60886C9.94183 3.60886 10.0891 3.5796 10.2243 3.52107C10.7884 3.27603 10.9091 2.62027 10.9141 2.5925C10.9241 2.53694 10.9086 2.48039 10.8722 2.43724C10.5852 2.09498 10.2558 1.93029 9.89342 1.94865ZM10.0696 3.16988C9.79409 3.28942 9.40576 3.21303 8.93957 2.94914C9.12825 2.72742 9.50609 2.35043 9.91288 2.33109C10.1265 2.32117 10.3227 2.41244 10.5113 2.61085C10.4664 2.75619 10.3441 3.05033 10.0696 3.16988Z" fill="white"/>
<path d="M20.074 14.8515C20.4633 14.8515 20.7802 14.5375 20.7802 14.1511C20.7802 13.7652 20.4633 13.4512 20.074 13.4512C19.6841 13.4512 19.3672 13.7652 19.3672 14.1511C19.3672 14.5375 19.6841 14.8515 20.074 14.8515ZM20.074 13.8346C20.2502 13.8346 20.3934 13.9765 20.3934 14.1511C20.3934 14.3262 20.2502 14.468 20.074 14.468C19.8973 14.468 19.754 14.3262 19.754 14.1511C19.754 13.9765 19.8973 13.8346 20.074 13.8346Z" fill="white"/>
</svg>
