<svg width="24" height="24" viewBox="0 0 24 24" fill="none" xmlns="http://www.w3.org/2000/svg">
<mask id="mask0_7777_11182" style="mask-type:luminance" maskUnits="userSpaceOnUse" x="0" y="0" width="24" height="24">
<path d="M0 0H24V24H0V0Z" fill="white"/>
</mask>
<g mask="url(#mask0_7777_11182)">
<mask id="mask1_7777_11182" style="mask-type:luminance" maskUnits="userSpaceOnUse" x="3" y="0" width="18" height="24">
<path d="M3.78125 0H20.2137V24H3.78125V0Z" fill="white"/>
</mask>
<g mask="url(#mask1_7777_11182)">
<path d="M10.9952 22.8228C10.5966 22.7727 10.2492 22.78 9.83251 22.8178C9.73848 23.1004 9.82462 23.3696 9.79929 23.6731C9.76269 24.1021 8.97327 23.9709 8.34658 23.9681C7.703 23.9653 8.11348 23.0402 7.9378 22.5233C6.18442 21.8504 4.92541 20.2615 4.9226 18.3431L4.90852 9.80425C4.55098 9.80256 4.26381 9.7654 4.04647 9.57283C3.82857 9.38026 3.78239 9.09535 3.78127 8.75414C3.7762 7.64997 4.85672 7.994 4.92879 7.73837C5.23116 6.66517 6.46032 6.3172 7.41753 6.00132L7.48622 4.77891C7.49805 4.56326 7.88544 4.60661 8.10334 4.58409C8.15965 4.04411 8.14163 3.5261 8.12305 2.94783L6.14275 2.92024C5.9271 3.54749 5.41922 3.94051 4.74692 3.78679C4.1664 3.65391 3.7655 3.11619 3.80998 2.56382C3.85559 1.99513 4.31561 1.53905 4.88656 1.48555C5.45694 1.43206 5.94456 1.7913 6.14275 2.38026L8.34884 2.39209C8.99917 2.3949 8.55323 4.03116 8.71426 4.5931C8.93273 4.62351 9.17879 4.5672 9.33983 4.67925C9.49917 4.96528 9.36179 5.2913 9.46539 5.59648L11.6613 5.4315C11.7559 5.13758 11.7362 4.88702 11.6974 4.6145C11.0301 4.56326 10.2953 4.43488 10.2897 3.5092L10.2745 1.10098C10.2706 0.477109 10.7289 0.0103291 11.3528 0.00976611H12.6917C13.3038 0.00920309 13.7278 0.49569 13.7267 1.10436L13.7221 3.50357C13.721 3.99682 13.4057 4.48555 12.9147 4.52947L12.279 4.58691C12.2379 4.86281 12.2368 5.11844 12.2801 5.4315L14.426 5.59591C14.5656 5.36337 14.2644 4.65278 14.8826 4.60774C15.4125 4.56889 16.8381 4.43713 16.8505 4.98105L16.8764 6.08578C17.6602 6.33859 18.7841 6.77159 19.0318 7.61055C19.1703 8.07902 19.551 7.71416 19.9598 8.09366C20.3134 8.42137 20.297 9.30763 19.9125 9.60718C19.7126 9.76258 19.4603 9.78172 19.0876 9.80594L19.1 18.1173C19.1033 20.164 17.9339 21.86 16.0104 22.5289L16.0279 23.5987C16.0363 24.1083 15.2143 23.9929 14.5437 23.9642C13.9682 23.9399 14.3105 23.1984 14.154 22.8031C13.7464 22.784 13.373 22.7744 12.9795 22.8166C12.9496 23.2051 13.0155 23.5475 12.8961 23.9208C12.3522 23.9174 11.0026 24.2356 11.0245 23.5835C11.0324 23.3476 11.0397 23.1612 10.9958 22.8223L10.9952 22.8228ZM13.1489 1.09986C13.1546 0.657289 12.8973 0.547491 12.6 0.547491H11.3291C11.0408 0.548054 10.761 0.843099 10.9085 1.08859L13.1489 1.09986ZM13.1748 1.64321L10.7998 1.6449L10.8004 2.93769L13.1754 2.93657L13.1748 1.64321ZM5.60109 2.64828C5.60109 2.3065 5.32293 2.02891 4.97947 2.02891C4.636 2.02891 4.35784 2.3065 4.35784 2.64828C4.35784 2.99006 4.636 3.26765 4.97947 3.26765C5.32293 3.26765 5.60109 2.99006 5.60109 2.64828ZM12.7959 4.01934C13.0363 4.01878 13.2571 3.55988 13.0758 3.53454L10.8184 3.49569C10.8027 3.81382 11.0544 4.02722 11.3415 4.02553L12.7959 4.01934ZM8.86122 5.68938C8.8905 5.46416 8.89107 5.33296 8.8539 5.16742C8.58025 5.09986 8.32294 5.09423 8.02507 5.16348C7.98735 5.4101 7.99185 5.62294 8.03521 5.84873C8.33757 5.83634 8.57631 5.78567 8.86122 5.68938ZM16.2863 5.90898C16.3331 5.63983 16.3719 5.38251 16.2582 5.13927C15.8376 5.12182 15.4265 5.08522 15.0763 5.17024C15.0042 5.27159 14.9817 5.62801 15.1112 5.67981C15.4823 5.8279 15.8449 5.80875 16.2863 5.90898ZM5.78915 7.86112L11.7126 7.84591C11.712 7.12576 11.7514 6.61731 11.6833 5.9895C10.0955 6.00977 8.57688 6.22486 7.08589 6.68375C6.1146 6.98274 4.93386 7.86337 5.78915 7.86112ZM12.2728 6.00583L12.2745 7.85774L18.5459 7.82508C18.292 6.44952 13.2385 5.91742 12.2728 6.00583ZM11.6912 9.22655C11.7379 8.90785 11.7582 8.70064 11.6698 8.41686L4.47496 8.44558C4.2762 8.44614 4.27676 9.19614 4.47552 9.19727L11.6906 9.22655H11.6912ZM19.5645 9.2136C19.7452 8.98049 19.7317 8.53285 19.5515 8.43713L12.2959 8.42418C12.2379 8.7226 12.1788 9.02384 12.3533 9.22598L19.5639 9.2136H19.5645ZM15.0887 22.2153C16.9817 21.9535 18.5234 20.3606 18.529 18.4597L18.5521 9.82227C18.248 9.76934 18.0217 9.76146 17.7542 9.83184L17.7109 18.4473C17.703 20.0345 16.3364 21.329 14.748 21.3921C12.9057 21.4653 11.1287 21.4619 9.30154 21.3943C7.46145 21.3256 6.23791 19.7598 6.24016 18.0041L6.2503 9.82452C5.96314 9.75526 5.72778 9.74456 5.4378 9.85886L5.45807 18.4073C5.46257 20.3408 7.2458 22.2125 9.38825 22.2513L11.5071 22.289L11.6039 23.3634C11.7706 23.5086 12.1625 23.4557 12.4035 23.4039C12.547 22.7868 12.1805 22.2885 12.8179 22.257C13.5634 22.2198 14.239 22.333 15.0881 22.2153H15.0887ZM11.7053 11.5773C11.7199 10.882 11.7531 10.3763 11.6743 9.78116L6.80435 9.78736L6.82575 11.7417C8.56167 10.918 10.0178 11.0317 11.7053 11.5773ZM17.1917 11.7029L17.1692 9.78848L12.2683 9.79017L12.2649 11.8296C13.7587 12.57 15.703 12.6533 17.1917 11.7023V11.7029ZM15.1647 17.4236C15.6022 17.7643 15.5786 18.3279 15.1816 18.6291C14.364 19.2496 13.1321 19.0081 12.3038 18.5396C12.0876 18.418 11.8911 18.4445 11.6805 18.5576C10.3944 19.2513 8.6467 19.1207 8.52564 18.0993C8.46877 17.6151 8.89275 17.2767 9.33476 17.1579C10.167 16.9343 10.9372 17.1764 11.7272 17.5098L11.7092 12.1702C10.0966 11.5205 8.33138 11.5013 6.80548 12.3555L6.80323 18.2232C6.80266 19.4304 7.61967 20.4343 8.75987 20.7722C9.33589 20.9428 9.89782 20.9062 10.4873 20.9056L14.4913 20.9022C15.8894 20.8639 17.0482 19.8684 17.1833 18.4658L17.1765 12.3375C15.6214 13.1263 13.9181 13.1235 12.2666 12.4445L12.2779 17.4799C13.0729 17.1719 14.3162 16.7615 15.1647 17.4236ZM11.502 18.0188C10.9164 17.561 9.0003 17.3803 9.08251 18.0481C9.15965 18.6764 10.9823 18.5424 11.502 18.0188ZM14.9063 17.9518C14.7542 17.3746 12.9429 17.6089 12.5268 18.0244C13.0881 18.5813 15.0971 18.6742 14.9063 17.9518ZM8.51325 22.7524L8.49636 23.4292L9.26663 23.4484L9.28296 22.771L8.51325 22.7524ZM15.4902 23.3746L15.4598 22.7575C15.2452 22.7519 14.9344 22.6973 14.7678 22.8814C14.6535 23.0081 14.7407 23.2367 14.7492 23.3865C14.9919 23.4619 15.248 23.507 15.4907 23.3746H15.4902Z" fill="white"/>
</g>
</g>
</svg>
