<svg width="24" height="24" viewBox="0 0 24 24" fill="none" xmlns="http://www.w3.org/2000/svg">
<mask id="mask0_7777_2627" style="mask-type:luminance" maskUnits="userSpaceOnUse" x="0" y="0" width="24" height="24">
<path d="M0 0H24V24H0V0Z" fill="white"/>
</mask>
<g mask="url(#mask0_7777_2627)">
<path d="M2.42852 18.9074C2.62782 18.5665 2.79915 18.223 3.01768 17.9135C3.17327 17.6941 3.17415 17.5438 3.05789 17.2903C2.65579 16.4144 2.29041 15.5202 1.94688 14.6198C1.8481 14.3611 1.76069 14.1889 1.45736 14.167C0.251071 14.0796 0.02205 13.5324 0.00544177 12.5158C-0.00242531 12.0473 -0.00767017 11.5761 0.0334138 11.1111C0.10684 10.2938 0.412784 9.95899 1.22397 9.86721C1.67153 9.81651 1.85597 9.65217 2.00107 9.20112C2.27555 8.34536 2.66803 7.52455 3.05527 6.70987C3.17502 6.45812 3.19775 6.29291 3.01506 6.08924C2.90055 5.96161 2.80702 5.81476 2.71611 5.66966C2.42677 5.20724 2.42153 4.73172 2.78516 4.32612C3.26331 3.78941 3.76943 3.28154 4.30527 2.80165C4.76681 2.38994 5.27555 2.38032 5.79303 2.81738C6.2231 3.18102 6.54041 3.14168 7.01855 2.89256C7.75981 2.50619 8.56226 2.23084 9.35509 1.95462C9.64006 1.85497 9.79216 1.74833 9.83761 1.43539C10.0011 0.308642 10.2799 0.0551452 11.411 0.0105647C11.9268 -0.0112886 12.4416 0.000949249 12.9556 0.0455297C13.6899 0.111963 14.0526 0.42053 14.1147 1.15305C14.1628 1.70724 14.4259 1.87158 14.9093 2.03154C15.7196 2.29815 16.4993 2.66703 17.2686 3.04116C17.5334 3.1714 17.7135 3.1985 17.9285 3.00095C18.0308 2.90654 18.1523 2.83137 18.2694 2.75357C18.7869 2.41091 19.2633 2.41266 19.7283 2.82612C20.2065 3.2527 20.661 3.70287 21.0937 4.17577C21.6086 4.73871 21.6444 5.21948 21.1715 5.81389C20.8446 6.22385 20.8402 6.52368 21.0929 6.99833C21.4923 7.7492 21.7633 8.57088 22.0526 9.37595C22.1471 9.63819 22.2432 9.78591 22.5395 9.83312C23.7187 10.0176 23.96 10.2947 23.9932 11.4808C24.0063 11.9642 24.0046 12.4511 23.96 12.9319C23.8909 13.688 23.5762 14.0525 22.8245 14.1216C22.2939 14.1697 22.1287 14.4083 21.9731 14.8864C21.7056 15.7116 21.3236 16.5027 20.946 17.2877C20.8254 17.5377 20.8245 17.688 20.9827 17.91C21.7004 18.9162 21.675 19.23 20.8175 20.1329C20.495 20.4721 20.1558 20.7973 19.8053 21.1085C19.2598 21.5927 18.7668 21.6469 18.2074 21.1801C17.7747 20.8183 17.4591 20.8585 16.981 21.1076C16.2397 21.494 15.4364 21.7684 14.6444 22.0447C14.3595 22.1443 14.2074 22.2509 14.1619 22.563C13.9958 23.6915 13.7205 23.9424 12.5867 23.9878C12.071 24.0088 11.5561 23.9975 11.0422 23.952C10.3096 23.8864 9.94688 23.5779 9.88481 22.8445C9.83674 22.2885 9.57188 22.1233 9.08936 21.9634C8.27992 21.695 7.49932 21.3287 6.73009 20.9555C6.46348 20.8253 6.28691 20.8051 6.07013 20.9983C5.94338 21.112 5.79653 21.2064 5.64967 21.2955C5.20562 21.5656 4.72572 21.5709 4.3446 21.2273C3.8009 20.737 3.28254 20.2142 2.78953 19.6723C2.62345 19.4905 2.56576 19.2099 2.42852 18.9074ZM6.35072 19.8384C6.50719 19.9153 6.62432 19.9581 6.7266 20.0245C7.7467 20.6854 8.84285 21.16 10.0395 21.3873C10.4023 21.4555 10.4958 21.6924 10.5544 22.0106C10.7729 23.1924 10.7799 23.1915 11.9801 23.1959C13.2144 23.2002 13.2144 23.2003 13.4495 22.0018C13.4556 21.9712 13.4679 21.9415 13.4696 21.9109C13.4827 21.5901 13.6724 21.445 13.9679 21.3873C15.1471 21.1583 16.2362 20.702 17.2353 20.0394C17.5116 19.8567 17.7266 19.869 17.9976 20.0569C19.0544 20.7894 19.0596 20.7815 19.9512 19.8794C20.7895 19.0315 20.8026 19.0219 20.1033 18.07C19.8577 17.7361 19.8673 17.4826 20.0902 17.1487C20.7205 16.2037 21.1462 15.1653 21.3673 14.0516C21.4434 13.6679 21.6304 13.5079 22.0081 13.4415C23.1916 13.2343 23.1899 13.2212 23.1934 12.0176C23.1969 10.7807 23.1969 10.7807 22.0002 10.5473C21.9696 10.5412 21.9399 10.5289 21.9093 10.5272C21.5885 10.5141 21.4451 10.3235 21.3866 10.0289C21.1558 8.84973 20.6995 7.76056 20.0378 6.76144C19.8542 6.48434 19.8691 6.27018 20.057 5.9992C20.7983 4.93452 20.7957 4.92403 19.8429 4.01406C18.8175 3.03591 19.064 3.18189 18.1086 3.8707C17.7406 4.13644 17.4748 4.12595 17.1077 3.88119C16.1759 3.26231 15.1488 2.84448 14.05 2.63032C13.6663 2.55515 13.5063 2.36633 13.439 1.98871C13.2301 0.805145 13.217 0.806893 12.0177 0.803397C10.7834 0.799026 10.7834 0.799026 10.5483 1.99658C10.5422 2.02717 10.5299 2.05689 10.5282 2.08749C10.5151 2.40829 10.3254 2.5534 10.0299 2.61109C8.8516 2.84273 7.76156 3.29728 6.76244 3.95987C6.48709 4.14256 6.27118 4.12945 6.0002 3.94151C4.95649 3.21511 4.95125 3.2221 4.04565 4.11896C3.1995 4.95549 3.18639 4.96598 3.89355 5.9284C4.13831 6.26144 4.13044 6.51581 3.90667 6.8506C3.2738 7.79728 2.8481 8.82962 2.62957 9.94675C2.55439 10.3305 2.36733 10.4922 1.98971 10.5595C0.805267 10.7711 0.807015 10.7842 0.803519 11.98C0.803519 12.0114 0.803519 12.0429 0.804393 12.0744C0.818379 13.223 0.818379 13.223 1.95125 13.438C1.96698 13.4406 1.98184 13.4485 1.9967 13.4494C2.38831 13.4669 2.52467 13.6959 2.63831 14.0578C2.90229 14.903 3.1217 15.7982 3.58149 16.535C4.08499 17.3436 4.19425 17.9669 3.47572 18.6478C3.25632 18.855 3.2974 19.091 3.51069 19.3043C3.80876 19.6023 4.08848 19.9188 4.39355 20.2099C4.99583 20.7842 5.0002 20.778 5.6689 20.3043C5.89443 20.1434 6.12607 19.9913 6.35072 19.8384Z" fill="white"/>
</g>
<path d="M20.4111 11.9808C20.4294 16.5988 16.6392 20.4012 12.009 20.4073C7.38571 20.4143 3.58851 16.618 3.59376 11.9939C3.599 7.38198 7.34987 3.62061 11.9723 3.59002C16.5868 3.5603 20.3927 7.34439 20.4111 11.9808ZM11.988 4.40208C7.79743 4.40645 4.40145 7.81642 4.40582 12.014C4.41019 16.2037 7.8219 19.6014 12.0186 19.5961C16.2083 19.5918 19.6051 16.1801 19.5999 11.9834C19.5946 7.79282 16.1855 4.39771 11.9871 4.40208H11.988Z" fill="white"/>
<path d="M6.86954 12.8316C7.18859 14.5677 8.16062 15.9112 9.84331 16.7276C9.9823 16.7958 10.1545 16.8386 10.248 16.9479C10.3346 17.0484 10.4054 17.2573 10.3564 17.3552C10.2952 17.4794 10.1143 17.5746 9.96744 17.614C9.86692 17.6411 9.7288 17.5615 9.61692 17.51C7.68335 16.6096 6.50765 15.1131 6.08894 13.0196C6.06796 12.9138 6.04873 12.8072 6.02076 12.6568C5.91062 12.6979 5.81534 12.7687 5.72968 12.7582C5.57408 12.7381 5.35992 12.7136 5.28999 12.6105C5.21831 12.5038 5.2288 12.2512 5.31097 12.1498C5.55485 11.8474 5.82671 11.5537 6.13877 11.3281C6.26202 11.239 6.5601 11.2766 6.70957 11.3684C6.94209 11.5117 7.14751 11.7294 7.30485 11.9566C7.42985 12.1367 7.56971 12.4191 7.50765 12.5808C7.4552 12.7154 7.12041 12.7416 6.86954 12.8316Z" fill="white"/>
<path d="M17.1228 11.1444C16.8038 9.44601 15.8501 8.10597 14.1866 7.28867C14.0608 7.22748 13.8921 7.20213 13.8151 7.10335C13.7146 6.97398 13.5914 6.73272 13.6464 6.64269C13.7277 6.50982 13.9515 6.44426 14.1272 6.39968C14.2129 6.3787 14.3291 6.46611 14.4279 6.51244C16.3545 7.4294 17.5162 8.93639 17.9113 11.0343C17.9288 11.1243 17.9497 11.2144 17.9777 11.3499C18.0905 11.3044 18.1866 11.2284 18.2723 11.2397C18.4279 11.2607 18.6421 11.2904 18.7094 11.3953C18.7793 11.5028 18.7627 11.7528 18.6788 11.856C18.4349 12.1584 18.1622 12.4513 17.8492 12.6768C17.7286 12.7633 17.4331 12.717 17.2802 12.6252C17.059 12.4932 16.8685 12.2834 16.7164 12.071C16.5852 11.8866 16.5249 11.6514 16.434 11.4399L17.1228 11.1444Z" fill="white"/>
<path d="M11.1939 6.07121C11.2725 5.72505 11.2507 5.41736 11.3923 5.28799C11.6414 5.05984 11.8696 5.3011 12.0627 5.49428C13.0365 6.46194 13.033 6.33869 12.0759 7.28449C11.8897 7.46806 11.6877 7.74603 11.4124 7.52226C11.2664 7.40338 11.2524 7.12016 11.165 6.86928C9.45872 7.18572 8.1283 8.1289 7.30487 9.76526C7.25592 9.86317 7.24281 9.99953 7.16676 10.0572C7.00243 10.1831 6.7839 10.3806 6.63092 10.3474C6.33372 10.2845 6.31799 10.0118 6.43512 9.74166C7.30313 7.74516 8.81624 6.54586 10.9351 6.09481C11.0418 6.07208 11.1493 6.05547 11.2559 6.03537C11.2708 6.03275 11.283 6.02051 11.1939 6.07121Z" fill="white"/>
<path d="M12.7941 17.9388C12.7285 18.2763 12.7591 18.5682 12.6289 18.6976C12.3859 18.938 12.1542 18.7212 11.9541 18.5254C11.0056 17.5997 10.9969 17.5936 11.9759 16.6775C12.121 16.542 12.434 16.4082 12.559 16.4764C12.7102 16.5586 12.7434 16.8567 12.8544 17.1233C14.5572 16.8165 15.8946 15.8514 16.7189 14.181C16.8562 13.903 16.927 13.4537 17.3771 13.6495C17.8535 13.8567 17.5843 14.2343 17.4401 14.5271C16.5153 16.4082 15.0187 17.5385 12.9532 17.9179C12.8911 17.9292 12.8291 17.938 12.7696 17.9537C12.7408 17.9616 12.7163 17.9834 12.7941 17.9388Z" fill="white"/>
</svg>
