<svg width="23" height="24" viewBox="0 0 23 24" fill="none" xmlns="http://www.w3.org/2000/svg">
<path d="M19.4781 3.99907C20.5466 3.99907 21.4151 4.868 21.4151 5.94076C21.4151 7.01166 20.5466 7.882 19.4781 7.882C18.4081 7.882 17.541 7.01166 17.541 5.94076C17.541 4.868 18.4081 3.99907 19.4781 3.99907ZM20.3363 5.07882C19.5728 4.3139 18.2621 4.85774 18.2621 5.94076C18.2621 7.02192 19.5737 7.56576 20.3363 6.80084C20.8111 6.32603 20.8111 5.5555 20.3363 5.07882ZM15.3689 8.36241C16.3531 8.36241 17.1497 9.16091 17.1497 10.1474C17.1497 11.132 16.3531 11.9319 15.3689 11.9319C14.3867 11.9319 13.59 11.132 13.59 10.1474C13.59 9.16091 14.3867 8.36241 15.3689 8.36241ZM16.1175 9.39692C15.452 8.72994 14.3106 9.20522 14.3106 10.1469C14.3106 11.0891 15.452 11.562 16.1175 10.8969C16.5308 10.4827 16.5308 9.8111 16.1175 9.39692ZM20.2906 10.6586C21.188 10.6586 21.916 11.3881 21.916 12.2878C21.916 13.187 21.188 13.9165 20.2906 13.9165C19.3946 13.9165 18.667 13.187 18.667 12.2878C18.667 11.3881 19.3946 10.6586 20.2906 10.6586ZM20.9296 11.6474C20.3624 11.0788 19.389 11.4832 19.389 12.2878C19.389 13.0919 20.3624 13.4963 20.9296 12.9282C21.2836 12.5746 21.2836 12 20.9296 11.6474ZM12.0714 17.2761C11.8783 17.2276 11.7617 17.0303 11.8097 16.8368C11.8596 16.6437 12.0555 16.5261 12.2481 16.576C14.1516 17.0606 16.1334 17.0606 18.0368 16.576C18.2295 16.5261 18.4254 16.6432 18.4753 16.8368C18.5233 17.0303 18.4067 17.2281 18.2136 17.2761C16.195 17.792 14.0896 17.7929 12.0714 17.2761ZM8.61521 20.5751H9.91185C9.53032 20.1824 9.25093 19.708 9.08722 19.1978H0.721549V21.791C0.721549 22.5965 1.3806 23.2575 2.1847 23.2575H8.5639C8.3694 22.9804 8.25373 22.6418 8.25373 22.2775V20.9366C8.2542 20.7365 8.41511 20.5751 8.61521 20.5751ZM11.0914 20.5751H19.1931C19.2864 20.5243 19.3769 20.4683 19.4632 20.4086C20.7071 19.5378 21.0271 17.805 20.1474 16.5406C19.4795 15.584 18.2705 15.1399 17.1507 15.4506C15.8204 15.8214 14.4641 15.8228 13.1353 15.4506C11.8811 15.0975 10.5219 15.7085 9.92957 16.8923C9.26306 18.2243 9.77938 19.8652 11.0914 20.5751ZM20.3727 20.5751H21.6707C21.8699 20.5751 22.0317 20.7365 22.0317 20.937V22.278C22.0317 23.2155 21.2668 23.9818 20.3316 23.9818H9.95289L9.8708 23.9804V23.9818C9.87966 23.9818 9.90205 23.9818 9.8708 23.9818H2.18517C0.982276 23.9818 0 22.9972 0 21.7915V9.73368C0 8.4958 0.916045 7.45149 2.1208 7.27425V6.15625C2.1208 5.3708 2.7584 4.73228 3.54011 4.73228H4.32649V2.53731H2.48041C2.28172 2.53731 2.1208 2.37593 2.1208 2.17677V0.361474C2.1208 0.16278 2.28172 0 2.48041 0H13.0765C13.9347 0 14.6334 0.700093 14.6334 1.56017V3.89692C14.6334 4.09655 14.4725 4.257 14.2724 4.257H12.5154C12.3153 4.257 12.1544 4.09608 12.1544 3.89692V2.53731H7.72994V4.73181H8.51493C9.29711 4.73181 9.93563 5.37034 9.93563 6.15578V7.27379C11.1385 7.45103 12.0564 8.49534 12.0564 9.73321V14.6488C12.4729 14.6063 12.9114 14.6381 13.3298 14.7542C14.5382 15.0896 15.7477 15.0877 16.9548 14.7542C17.6726 14.556 18.4342 14.6031 19.1035 14.8554C20.7673 15.4823 21.6982 17.2654 21.2556 18.9972C21.1049 19.5835 20.8055 20.132 20.3727 20.5751ZM21.3097 21.2994H8.97668V22.2785C8.97668 22.8176 9.41651 23.2584 9.95336 23.2584H20.3321C20.8685 23.2584 21.3097 22.8176 21.3097 22.2785V21.2994ZM8.93703 18.4757C8.77379 16.8419 9.77472 15.3088 11.3344 14.8018V12.5639H0.721549V18.4757H8.93703ZM2.84188 7.24767H9.21362V6.15625C9.21362 5.77052 8.89925 5.45429 8.51493 5.45429H3.54058C3.15718 5.45429 2.84188 5.77052 2.84188 6.15625V7.24767ZM9.57463 7.96968H2.48041C1.51399 7.96968 0.721549 8.76539 0.721549 9.73368V11.8405H11.3344V9.73368C11.3344 8.76539 10.5424 7.96968 9.57463 7.96968ZM5.04711 4.73228H7.00746V2.53731H5.04711V4.73228ZM9.8708 23.9804C9.86521 23.9804 9.86614 23.9818 9.8708 23.9818V23.9804ZM2.84188 0.723414V1.8153H12.5159C12.715 1.8153 12.8769 1.97621 12.8769 2.17677V3.53498H13.9118V1.56017C13.9118 1.10028 13.5373 0.723414 13.077 0.723414H2.84188Z" fill="white"/>
</svg>
