<svg width="10" height="24" viewBox="0 0 10 24" fill="none" xmlns="http://www.w3.org/2000/svg">
<path d="M1.00781 9.04688H9.00456V10.5822H1.00781V9.04688Z" fill="white"/>
<path d="M7.89062 5.20703H8.64583V8.29016H7.89062V5.20703Z" fill="white"/>
<path d="M1.375 5.20703H2.12956V8.29016H1.375V5.20703Z" fill="white"/>
<mask id="mask0_7777_11149" style="mask-type:luminance" maskUnits="userSpaceOnUse" x="0" y="0" width="10" height="5">
<path d="M0.453125 0H9.45312V4.59426H0.453125V0Z" fill="white"/>
</mask>
<g mask="url(#mask0_7777_11149)">
<path d="M9.40951 4.44945H0.59375L5.0013 0.0332031L9.40951 4.44945Z" fill="white"/>
</g>
<path d="M7.93685 11.3379H6.43945L5.00977 12.5094L3.57943 11.3379H2.08203L0.304688 22.887C0.41276 22.8615 0.522786 22.8491 0.634115 22.8497C0.780599 22.8491 0.924479 22.8707 1.0651 22.9132L1.19466 22.0735H8.80859L8.9349 22.9138C9.1862 22.8379 9.43945 22.8288 9.69466 22.8877L7.93685 11.3379ZM8.58398 15.6102C8.58398 15.6036 8.58073 15.5964 8.57943 15.5899V15.5715C8.58073 15.5846 8.58138 15.5971 8.58138 15.6102H8.58398ZM7.22656 11.6723L7.6875 14.7011L5.60807 12.9982L7.22656 11.6723ZM7.1875 15.2712H2.83138L5.00977 13.4891L7.1875 15.2712ZM7.19792 16.0277L5.00977 17.8202L2.82096 16.0277H7.19792ZM2.79362 11.6723L4.41146 12.9989L2.32487 14.7077L2.79362 11.6723ZM1.44206 15.5702V15.5905C1.4401 15.5964 1.4388 15.603 1.4375 15.6095C1.43815 15.5964 1.43945 15.5833 1.44206 15.5702ZM2.06641 16.387L4.41146 18.3078L1.39258 20.7823L2.06641 16.387ZM1.93034 21.3203L5.00977 18.7986L8.08854 21.3203H1.93034ZM5.60547 18.3098L7.94336 16.3955L8.60938 20.7705L5.60547 18.3098Z" fill="white"/>
<mask id="mask1_7777_11149" style="mask-type:luminance" maskUnits="userSpaceOnUse" x="0" y="23" width="2" height="1">
<path d="M0 23.5254H1.28776V23.9992H0V23.5254Z" fill="white"/>
</mask>
<g mask="url(#mask1_7777_11149)">
<path d="M1.26628 23.9661H0C0.0664062 23.8548 0.155599 23.7665 0.26888 23.7023C0.38151 23.6382 0.502604 23.6055 0.632812 23.6055C0.76237 23.6055 0.884115 23.6375 0.997396 23.7017C1.11068 23.7665 1.19987 23.8542 1.26628 23.9661Z" fill="white"/>
</g>
<mask id="mask2_7777_11149" style="mask-type:luminance" maskUnits="userSpaceOnUse" x="8" y="23" width="2" height="1">
<path d="M8.625 23.5254H10.0039V23.9992H8.625V23.5254Z" fill="white"/>
</mask>
<g mask="url(#mask2_7777_11149)">
<path d="M10.0013 23.9661H8.73438C8.80078 23.8542 8.89063 23.7665 9.00391 23.7017C9.11654 23.6375 9.23828 23.6055 9.36849 23.6055C9.49805 23.6055 9.61979 23.6382 9.73242 23.7023C9.84505 23.7665 9.9349 23.8548 10.0013 23.9661Z" fill="white"/>
</g>
</svg>
