<svg width="60" height="60" viewBox="0 0 60 60" fill="none" xmlns="http://www.w3.org/2000/svg">
<g clip-path="url(#clip0_8730_28425)">
<g clip-path="url(#clip1_8730_28425)">
<path d="M4.5625 17.4534H11.0357L11.0745 1.73242L4.5625 4.29289V17.4534Z" fill="black"/>
<path d="M13.4297 17.4526H19.9294V-0.0449219L13.4297 1.26089V17.4526Z" fill="black"/>
<path d="M22.2482 7.91417H28.7214V5.77943H35.2825L18.6641 25.0105H27.19L47.5132 1.94794C47.5132 1.94794 37.8034 -1.5008 22.283 -0.211362C22.3177 -0.141773 22.2482 7.91417 22.2482 7.91417Z" fill="black"/>
<path d="M35.7109 17.3849H44.3759L47.8394 13.1175V17.3849H54.3637V4.37181L48.9701 2.26367L35.7109 17.3849Z" fill="black"/>
<path d="M54.3658 18.8457V34.2597H39.0191L44.2389 27.7981H47.9458V25.0105H27.1094L32.5909 18.8457H54.3658Z" fill="#00A5FE"/>
<path d="M4.5625 34.2597V18.8457H22.242L17.0222 25.3072H13.3154V28.0949L35.2231 28.0417L29.7436 34.2085L4.5625 34.2597Z" fill="#00A5FE"/>
<path d="M15.0027 49.0495L18.918 44.2417L16.0822 42.0476H21.3715V35.498H5.46875C5.46875 35.498 7.5665 43.6154 15.0047 49.0515L15.0027 49.0495Z" fill="black"/>
<path d="M16.1016 50.0781L34.1471 28.043H42.4297L25.2368 48.7887L28.6819 51.4003L28.6308 59.5013L16.1016 50.0781Z" fill="black"/>
<path d="M53.6313 35.3594C50.9202 45.7916 41.3536 51.8724 33.0035 57.5726C32.1304 58.1682 31.1858 58.8866 30.2188 59.2673V45.0322L38.3112 35.3594H53.6313ZM43.1037 41.9662H40.0389L37.1887 46.3483L36.9761 46.9991L43.1017 41.9662H43.1037Z" fill="black"/>
</g>
</g>
<defs>
<clipPath id="clip0_8730_28425">
<rect width="60" height="60" fill="white"/>
</clipPath>
<clipPath id="clip1_8730_28425">
<rect width="49.8" height="60" fill="white" transform="translate(4.5625 -0.5)"/>
</clipPath>
</defs>
</svg>
